<svg width="53" height="40" viewBox="0 0 53 40" fill="none" xmlns="http://www.w3.org/2000/svg">
<path d="M4.5 2V38C4.5 38.5304 4.28929 39.0391 3.91421 39.4142C3.53914 39.7893 3.03043 40 2.5 40C1.96957 40 1.46086 39.7893 1.08579 39.4142C0.710714 39.0391 0.5 38.5304 0.5 38V2C0.5 1.46957 0.710714 0.96086 1.08579 0.585787C1.46086 0.210714 1.96957 0 2.5 0C3.03043 0 3.53914 0.210714 3.91421 0.585787C4.28929 0.96086 4.5 1.46957 4.5 2ZM25.5 15.625L20.5 17.25V12C20.5 11.4696 20.2893 10.9609 19.9142 10.5858C19.5391 10.2107 19.0304 10 18.5 10C17.9696 10 17.4609 10.2107 17.0858 10.5858C16.7107 10.9609 16.5 11.4696 16.5 12V17.25L11.5 15.625C10.9954 15.4592 10.4457 15.5007 9.97167 15.7403C9.49767 15.9799 9.13826 16.3979 8.9725 16.9025C8.80674 17.4071 8.84821 17.9568 9.08779 18.4308C9.32737 18.9048 9.74543 19.2642 10.25 19.43L15.25 21.0525L12.165 25.3025C12.002 25.5143 11.8831 25.7567 11.8153 26.0153C11.7475 26.2738 11.7323 26.5434 11.7704 26.8079C11.8086 27.0725 11.8994 27.3267 12.0375 27.5556C12.1756 27.7845 12.3582 27.9833 12.5745 28.1404C12.7908 28.2975 13.0363 28.4097 13.2967 28.4703C13.557 28.5309 13.8269 28.5386 14.0903 28.4931C14.3537 28.4477 14.6053 28.3498 14.8303 28.2054C15.0552 28.0611 15.2489 27.873 15.4 27.6525L18.485 23.4025L21.57 27.6525C21.7211 27.873 21.9148 28.0611 22.1397 28.2054C22.3647 28.3498 22.6163 28.4477 22.8797 28.4931C23.1431 28.5386 23.413 28.5309 23.6733 28.4703C23.9337 28.4097 24.1792 28.2975 24.3955 28.1404C24.6118 27.9833 24.7944 27.7845 24.9325 27.5556C25.0706 27.3267 25.1614 27.0725 25.1996 26.8079C25.2377 26.5434 25.2225 26.2738 25.1547 26.0153C25.087 25.7567 24.968 25.5143 24.805 25.3025L21.72 21.0525L26.72 19.43C27.2023 19.2506 27.5969 18.8922 27.8217 18.4294C28.0466 17.9665 28.0844 17.4348 27.9273 16.9448C27.7702 16.4548 27.4302 16.0442 26.9782 15.7984C26.5261 15.5526 25.9967 15.4905 25.5 15.625ZM52 16.91C51.8361 16.41 51.4818 15.9948 51.0138 15.7542C50.5459 15.5137 50.002 15.4673 49.5 15.625L44.5 17.25V12C44.5 11.4696 44.2893 10.9609 43.9142 10.5858C43.5391 10.2107 43.0304 10 42.5 10C41.9696 10 41.4609 10.2107 41.0858 10.5858C40.7107 10.9609 40.5 11.4696 40.5 12V17.25L35.5 15.6275C35.2502 15.5462 34.9868 15.515 34.7248 15.5355C34.4629 15.5561 34.2076 15.628 33.9735 15.7472C33.7394 15.8664 33.531 16.0306 33.3604 16.2303C33.1897 16.43 33.06 16.6614 32.9788 16.9112C32.8975 17.1611 32.8662 17.4245 32.8868 17.6864C32.9073 17.9483 32.9793 18.2036 33.0985 18.4377C33.2177 18.6719 33.3818 18.8802 33.5815 19.0509C33.7813 19.2216 34.0127 19.3512 34.2625 19.4325L39.2625 21.055L36.1775 25.305C36.0145 25.5168 35.8956 25.7592 35.8278 26.0178C35.76 26.2763 35.7448 26.5459 35.7829 26.8104C35.8211 27.075 35.9119 27.3292 36.05 27.5581C36.1881 27.787 36.3707 27.9858 36.587 28.1429C36.8033 28.3 37.0488 28.4122 37.3092 28.4728C37.5695 28.5334 37.8394 28.5411 38.1028 28.4956C38.3662 28.4502 38.6178 28.3523 38.8428 28.2079C39.0677 28.0636 39.2615 27.8755 39.4125 27.655L42.4975 23.405L45.5825 27.655C45.7336 27.8755 45.9273 28.0636 46.1522 28.2079C46.3772 28.3523 46.6288 28.4502 46.8922 28.4956C47.1556 28.5411 47.4255 28.5334 47.6858 28.4728C47.9462 28.4122 48.1917 28.3 48.408 28.1429C48.6243 27.9858 48.8069 27.787 48.945 27.5581C49.0831 27.3292 49.1739 27.075 49.2121 26.8104C49.2502 26.5459 49.235 26.2763 49.1672 26.0178C49.0995 25.7592 48.9805 25.5168 48.8175 25.305L45.7325 21.055L50.7325 19.4325C51.2345 19.2652 51.6497 18.9058 51.8873 18.4331C52.1248 17.9603 52.1654 17.4126 52 16.91Z" fill="black"/>
</svg>
