<svg width="49" height="48" viewBox="0 0 49 48" fill="none" xmlns="http://www.w3.org/2000/svg">
<path d="M48.5 4V11C48.5 11.5304 48.2893 12.0391 47.9142 12.4142C47.5391 12.7893 47.0304 13 46.5 13C45.9696 13 45.4609 12.7893 45.0858 12.4142C44.7107 12.0391 44.5 11.5304 44.5 11V4H37.5C36.9696 4 36.4609 3.78929 36.0858 3.41421C35.7107 3.03914 35.5 2.53043 35.5 2C35.5 1.46957 35.7107 0.96086 36.0858 0.585787C36.4609 0.210714 36.9696 0 37.5 0H44.5C45.5609 0 46.5783 0.421427 47.3284 1.17157C48.0786 1.92172 48.5 2.93913 48.5 4ZM46.5 35C45.9696 35 45.4609 35.2107 45.0858 35.5858C44.7107 35.9609 44.5 36.4696 44.5 37V44H37.5C36.9696 44 36.4609 44.2107 36.0858 44.5858C35.7107 44.9609 35.5 45.4696 35.5 46C35.5 46.5304 35.7107 47.0391 36.0858 47.4142C36.4609 47.7893 36.9696 48 37.5 48H44.5C45.5609 48 46.5783 47.5786 47.3284 46.8284C48.0786 46.0783 48.5 45.0609 48.5 44V37C48.5 36.4696 48.2893 35.9609 47.9142 35.5858C47.5391 35.2107 47.0304 35 46.5 35ZM11.5 44H4.5V37C4.5 36.4696 4.28929 35.9609 3.91421 35.5858C3.53914 35.2107 3.03043 35 2.5 35C1.96957 35 1.46086 35.2107 1.08579 35.5858C0.710714 35.9609 0.5 36.4696 0.5 37V44C0.5 45.0609 0.921427 46.0783 1.67157 46.8284C2.42172 47.5786 3.43913 48 4.5 48H11.5C12.0304 48 12.5391 47.7893 12.9142 47.4142C13.2893 47.0391 13.5 46.5304 13.5 46C13.5 45.4696 13.2893 44.9609 12.9142 44.5858C12.5391 44.2107 12.0304 44 11.5 44ZM2.5 13C3.03043 13 3.53914 12.7893 3.91421 12.4142C4.28929 12.0391 4.5 11.5304 4.5 11V4H11.5C12.0304 4 12.5391 3.78929 12.9142 3.41421C13.2893 3.03914 13.5 2.53043 13.5 2C13.5 1.46957 13.2893 0.96086 12.9142 0.585787C12.5391 0.210714 12.0304 0 11.5 0H4.5C3.43913 0 2.42172 0.421427 1.67157 1.17157C0.921427 1.92172 0.5 2.93913 0.5 4V11C0.5 11.5304 0.710714 12.0391 1.08579 12.4142C1.46086 12.7893 1.96957 13 2.5 13ZM36.5 36C36.1893 36.0007 35.8827 35.929 35.6046 35.7905C35.3264 35.6521 35.0843 35.4508 34.8975 35.2025C33.6866 33.588 32.1164 32.2775 30.3113 31.3749C28.5062 30.4724 26.5157 30.0025 24.4975 30.0025C22.4793 30.0025 20.4888 30.4724 18.6837 31.3749C16.8786 32.2775 15.3084 33.588 14.0975 35.2025C13.7786 35.6268 13.3041 35.9071 12.7786 35.9817C12.253 36.0562 11.7193 35.9189 11.295 35.6C10.8707 35.2811 10.5904 34.8066 10.5158 34.2811C10.4413 33.7555 10.5786 33.2218 10.8975 32.7975C12.67 30.4242 15.0323 28.5557 17.75 27.3775C16.2608 26.0178 15.2174 24.2397 14.7568 22.2765C14.2962 20.3133 14.44 18.2566 15.1691 16.3766C15.8983 14.4965 17.1788 12.8807 18.8427 11.7414C20.5065 10.6021 22.476 9.99247 24.4925 9.99247C26.509 9.99247 28.4785 10.6021 30.1423 11.7414C31.8062 12.8807 33.0867 14.4965 33.8159 16.3766C34.545 18.2566 34.6888 20.3133 34.2282 22.2765C33.7676 24.2397 32.7242 26.0178 31.235 27.3775C33.9545 28.555 36.3186 30.4235 38.0925 32.7975C38.3157 33.0941 38.4519 33.447 38.486 33.8167C38.52 34.1863 38.4505 34.5581 38.2852 34.8905C38.1199 35.2229 37.8654 35.5027 37.5501 35.6987C37.2348 35.8946 36.8712 35.999 36.5 36ZM24.5 26C25.6867 26 26.8467 25.6481 27.8334 24.9888C28.8201 24.3295 29.5892 23.3925 30.0433 22.2961C30.4974 21.1997 30.6162 19.9933 30.3847 18.8295C30.1532 17.6656 29.5818 16.5965 28.7426 15.7574C27.9035 14.9182 26.8344 14.3468 25.6705 14.1153C24.5067 13.8838 23.3003 14.0026 22.2039 14.4567C21.1075 14.9108 20.1705 15.6799 19.5112 16.6666C18.8519 17.6533 18.5 18.8133 18.5 20C18.5 21.5913 19.1321 23.1174 20.2574 24.2426C21.3826 25.3679 22.9087 26 24.5 26Z" fill="black"/>
</svg>
