<svg width="287" height="182" viewBox="0 0 287 182" fill="none" xmlns="http://www.w3.org/2000/svg">
<rect x="1" y="1" width="285" height="180" rx="7" stroke="white" stroke-width="2"/>
<path d="M52.9433 64.9431C48.7318 64.9431 45.1265 63.4435 42.1275 60.4445C39.1284 57.4454 37.6289 53.8401 37.6289 49.6286C37.6289 45.4172 39.1284 41.8119 42.1275 38.8128C45.1265 35.8137 48.7318 34.3142 52.9433 34.3142C57.1548 34.3142 60.76 35.8137 63.7591 38.8128C66.7582 41.8119 68.2577 45.4172 68.2577 49.6286C68.2577 53.8401 66.7582 57.4454 63.7591 60.4445C60.76 63.4435 57.1548 64.9431 52.9433 64.9431ZM22.3144 95.5719V84.8518C22.3144 82.6823 22.8728 80.6882 23.9894 78.8696C25.1061 77.051 26.5897 75.6632 28.4402 74.706C32.3964 72.7279 36.4165 71.2443 40.5003 70.2553C44.5842 69.2662 48.7318 68.7717 52.9433 68.7717C57.1548 68.7717 61.3024 69.2662 65.3863 70.2553C69.4701 71.2443 73.4902 72.7279 77.4464 74.706C79.2969 75.6632 80.7805 77.051 81.8971 78.8696C83.0138 80.6882 83.5722 82.6823 83.5722 84.8518V95.5719H22.3144Z" fill="white" fill-opacity="0.9"/>
<path d="M264.018 143.092L258.879 140.93V139.705L264.018 137.543V139.031L260.731 140.191L260.35 140.326L260.731 140.461L264.018 141.598V143.092Z" fill="white"/>
<path d="M257.051 143.092L251.912 140.93V139.705L257.051 137.543V139.031L253.764 140.191L253.383 140.326L253.764 140.461L257.051 141.598V143.092Z" fill="white"/>
<path d="M250.084 143.092L244.945 140.93V139.705L250.084 137.543V139.031L246.797 140.191L246.416 140.326L246.797 140.461L250.084 141.598V143.092Z" fill="white"/>
<path d="M243.117 143.092L237.978 140.93V139.705L243.117 137.543V139.031L239.83 140.191L239.449 140.326L239.83 140.461L243.117 141.598V143.092Z" fill="white"/>
<path d="M236.15 143.092L231.011 140.93V139.705L236.15 137.543V139.031L232.862 140.191L232.482 140.326L232.862 140.461L236.15 141.598V143.092Z" fill="white"/>
<path d="M229.183 143.092L224.044 140.93V139.705L229.183 137.543V139.031L225.895 140.191L225.515 140.326L225.895 140.461L229.183 141.598V143.092Z" fill="white"/>
<path d="M222.216 143.092L217.077 140.93V139.705L222.216 137.543V139.031L218.928 140.191L218.548 140.326L218.928 140.461L222.216 141.598V143.092Z" fill="white"/>
<path d="M215.249 143.092L210.11 140.93V139.705L215.249 137.543V139.031L211.961 140.191L211.581 140.326L211.961 140.461L215.249 141.598V143.092Z" fill="white"/>
<path d="M208.281 143.092L203.143 140.93V139.705L208.281 137.543V139.031L204.994 140.191L204.614 140.326L204.994 140.461L208.281 141.598V143.092Z" fill="white"/>
<path d="M201.314 143.092L196.176 140.93V139.705L201.314 137.543V139.031L198.027 140.191L197.646 140.326L198.027 140.461L201.314 141.598V143.092Z" fill="white"/>
<path d="M194.347 143.092L189.209 140.93V139.705L194.347 137.543V139.031L191.06 140.191L190.679 140.326L191.06 140.461L194.347 141.598V143.092Z" fill="white"/>
<path d="M187.38 143.092L182.242 140.93V139.705L187.38 137.543V139.031L184.093 140.191L183.712 140.326L184.093 140.461L187.38 141.598V143.092Z" fill="white"/>
<path d="M180.413 143.092L175.275 140.93V139.705L180.413 137.543V139.031L177.126 140.191L176.745 140.326L177.126 140.461L180.413 141.598V143.092Z" fill="white"/>
<path d="M173.446 143.092L168.308 140.93V139.705L173.446 137.543V139.031L170.159 140.191L169.778 140.326L170.159 140.461L173.446 141.598V143.092Z" fill="white"/>
<path d="M166.479 143.092L161.341 140.93V139.705L166.479 137.543V139.031L163.192 140.191L162.811 140.326L163.192 140.461L166.479 141.598V143.092Z" fill="white"/>
<path d="M159.512 143.092L154.374 140.93V139.705L159.512 137.543V139.031L156.225 140.191L155.844 140.326L156.225 140.461L159.512 141.598V143.092Z" fill="white"/>
<path d="M152.545 143.092L147.407 140.93V139.705L152.545 137.543V139.031L149.258 140.191L148.877 140.326L149.258 140.461L152.545 141.598V143.092Z" fill="white"/>
<path d="M145.578 143.092L140.44 140.93V139.705L145.578 137.543V139.031L142.291 140.191L141.91 140.326L142.291 140.461L145.578 141.598V143.092Z" fill="white"/>
<path d="M138.611 143.092L133.473 140.93V139.705L138.611 137.543V139.031L135.324 140.191L134.943 140.326L135.324 140.461L138.611 141.598V143.092Z" fill="white"/>
<path d="M131.644 143.092L126.505 140.93V139.705L131.644 137.543V139.031L128.357 140.191L127.976 140.326L128.357 140.461L131.644 141.598V143.092Z" fill="white"/>
<path d="M124.677 143.092L119.538 140.93V139.705L124.677 137.543V139.031L121.39 140.191L121.009 140.326L121.39 140.461L124.677 141.598V143.092Z" fill="white"/>
<path d="M117.71 143.092L112.571 140.93V139.705L117.71 137.543V139.031L114.423 140.191L114.042 140.326L114.423 140.461L117.71 141.598V143.092Z" fill="white"/>
<path d="M110.743 143.092L105.604 140.93V139.705L110.743 137.543V139.031L107.456 140.191L107.075 140.326L107.456 140.461L110.743 141.598V143.092Z" fill="white"/>
<path d="M103.776 143.092L98.6373 140.93V139.705L103.776 137.543V139.031L100.489 140.191L100.108 140.326L100.489 140.461L103.776 141.598V143.092Z" fill="white"/>
<path d="M96.809 143.092L91.6703 140.93V139.705L96.809 137.543V139.031L93.5219 140.191L93.141 140.326L93.5219 140.461L96.809 141.598V143.092Z" fill="white"/>
<path d="M89.8419 143.092L84.7032 140.93V139.705L89.8419 137.543V139.031L86.5548 140.191L86.1739 140.326L86.5548 140.461L89.8419 141.598V143.092Z" fill="white"/>
<path d="M82.8749 143.092L77.7363 140.93V139.705L82.8749 137.543V139.031L79.5878 140.191L79.207 140.326L79.5878 140.461L82.8749 141.598V143.092Z" fill="white"/>
<path d="M75.9079 143.092L70.7692 140.93V139.705L75.9079 137.543V139.031L72.6208 140.191L72.2399 140.326L72.6208 140.461L75.9079 141.598V143.092Z" fill="white"/>
<path d="M68.9409 143.092L63.8022 140.93V139.705L68.9409 137.543V139.031L65.6537 140.191L65.2729 140.326L65.6537 140.461L68.9409 141.598V143.092Z" fill="white"/>
<path d="M61.9738 143.092L56.8351 140.93V139.705L61.9738 137.543V139.031L58.6867 140.191L58.3058 140.326L58.6867 140.461L61.9738 141.598V143.092Z" fill="white"/>
<path d="M55.0068 143.092L49.8681 140.93V139.705L55.0068 137.543V139.031L51.7197 140.191L51.3388 140.326L51.7197 140.461L55.0068 141.598V143.092Z" fill="white"/>
<path d="M48.0398 143.092L42.9011 140.93V139.705L48.0398 137.543V139.031L44.7527 140.191L44.3718 140.326L44.7527 140.461L48.0398 141.598V143.092Z" fill="white"/>
<path d="M41.0728 143.092L35.9341 140.93V139.705L41.0728 137.543V139.031L37.7856 140.191L37.4048 140.326L37.7856 140.461L41.0728 141.598V143.092Z" fill="white"/>
<path d="M34.1057 143.092L28.967 140.93V139.705L34.1057 137.543V139.031L30.8186 140.191L30.4377 140.326L30.8186 140.461L34.1057 141.598V143.092Z" fill="white"/>
<path d="M27.1387 143.092L22 140.93V139.705L27.1387 137.543V139.031L23.8516 140.191L23.4707 140.326L23.8516 140.461L27.1387 141.598V143.092Z" fill="white"/>
<path d="M264.018 160.092L258.879 157.93V156.705L264.018 154.543V156.031L260.731 157.191L260.35 157.326L260.731 157.461L264.018 158.598V160.092Z" fill="white"/>
<path d="M257.051 160.092L251.912 157.93V156.705L257.051 154.543V156.031L253.764 157.191L253.383 157.326L253.764 157.461L257.051 158.598V160.092Z" fill="white"/>
<path d="M250.084 160.092L244.945 157.93V156.705L250.084 154.543V156.031L246.797 157.191L246.416 157.326L246.797 157.461L250.084 158.598V160.092Z" fill="white"/>
<path d="M243.117 160.092L237.978 157.93V156.705L243.117 154.543V156.031L239.83 157.191L239.449 157.326L239.83 157.461L243.117 158.598V160.092Z" fill="white"/>
<path d="M236.15 160.092L231.011 157.93V156.705L236.15 154.543V156.031L232.862 157.191L232.482 157.326L232.862 157.461L236.15 158.598V160.092Z" fill="white"/>
<path d="M229.183 160.092L224.044 157.93V156.705L229.183 154.543V156.031L225.895 157.191L225.515 157.326L225.895 157.461L229.183 158.598V160.092Z" fill="white"/>
<path d="M222.216 160.092L217.077 157.93V156.705L222.216 154.543V156.031L218.928 157.191L218.548 157.326L218.928 157.461L222.216 158.598V160.092Z" fill="white"/>
<path d="M215.249 160.092L210.11 157.93V156.705L215.249 154.543V156.031L211.961 157.191L211.581 157.326L211.961 157.461L215.249 158.598V160.092Z" fill="white"/>
<path d="M208.281 160.092L203.143 157.93V156.705L208.281 154.543V156.031L204.994 157.191L204.614 157.326L204.994 157.461L208.281 158.598V160.092Z" fill="white"/>
<path d="M201.314 160.092L196.176 157.93V156.705L201.314 154.543V156.031L198.027 157.191L197.646 157.326L198.027 157.461L201.314 158.598V160.092Z" fill="white"/>
<path d="M194.347 160.092L189.209 157.93V156.705L194.347 154.543V156.031L191.06 157.191L190.679 157.326L191.06 157.461L194.347 158.598V160.092Z" fill="white"/>
<path d="M187.38 160.092L182.242 157.93V156.705L187.38 154.543V156.031L184.093 157.191L183.712 157.326L184.093 157.461L187.38 158.598V160.092Z" fill="white"/>
<path d="M180.413 160.092L175.275 157.93V156.705L180.413 154.543V156.031L177.126 157.191L176.745 157.326L177.126 157.461L180.413 158.598V160.092Z" fill="white"/>
<path d="M173.446 160.092L168.308 157.93V156.705L173.446 154.543V156.031L170.159 157.191L169.778 157.326L170.159 157.461L173.446 158.598V160.092Z" fill="white"/>
<path d="M166.479 160.092L161.341 157.93V156.705L166.479 154.543V156.031L163.192 157.191L162.811 157.326L163.192 157.461L166.479 158.598V160.092Z" fill="white"/>
<path d="M159.512 160.092L154.374 157.93V156.705L159.512 154.543V156.031L156.225 157.191L155.844 157.326L156.225 157.461L159.512 158.598V160.092Z" fill="white"/>
<path d="M152.545 160.092L147.407 157.93V156.705L152.545 154.543V156.031L149.258 157.191L148.877 157.326L149.258 157.461L152.545 158.598V160.092Z" fill="white"/>
<path d="M145.578 160.092L140.44 157.93V156.705L145.578 154.543V156.031L142.291 157.191L141.91 157.326L142.291 157.461L145.578 158.598V160.092Z" fill="white"/>
<path d="M138.611 160.092L133.473 157.93V156.705L138.611 154.543V156.031L135.324 157.191L134.943 157.326L135.324 157.461L138.611 158.598V160.092Z" fill="white"/>
<path d="M131.644 160.092L126.505 157.93V156.705L131.644 154.543V156.031L128.357 157.191L127.976 157.326L128.357 157.461L131.644 158.598V160.092Z" fill="white"/>
<path d="M124.677 160.092L119.538 157.93V156.705L124.677 154.543V156.031L121.39 157.191L121.009 157.326L121.39 157.461L124.677 158.598V160.092Z" fill="white"/>
<path d="M117.71 160.092L112.571 157.93V156.705L117.71 154.543V156.031L114.423 157.191L114.042 157.326L114.423 157.461L117.71 158.598V160.092Z" fill="white"/>
<path d="M110.743 160.092L105.604 157.93V156.705L110.743 154.543V156.031L107.456 157.191L107.075 157.326L107.456 157.461L110.743 158.598V160.092Z" fill="white"/>
<path d="M103.776 160.092L98.6373 157.93V156.705L103.776 154.543V156.031L100.489 157.191L100.108 157.326L100.489 157.461L103.776 158.598V160.092Z" fill="white"/>
<path d="M96.809 160.092L91.6703 157.93V156.705L96.809 154.543V156.031L93.5219 157.191L93.141 157.326L93.5219 157.461L96.809 158.598V160.092Z" fill="white"/>
<path d="M89.8419 160.092L84.7032 157.93V156.705L89.8419 154.543V156.031L86.5548 157.191L86.1739 157.326L86.5548 157.461L89.8419 158.598V160.092Z" fill="white"/>
<path d="M82.8749 160.092L77.7363 157.93V156.705L82.8749 154.543V156.031L79.5878 157.191L79.207 157.326L79.5878 157.461L82.8749 158.598V160.092Z" fill="white"/>
<path d="M75.9079 160.092L70.7692 157.93V156.705L75.9079 154.543V156.031L72.6208 157.191L72.2399 157.326L72.6208 157.461L75.9079 158.598V160.092Z" fill="white"/>
<path d="M68.9409 160.092L63.8022 157.93V156.705L68.9409 154.543V156.031L65.6537 157.191L65.2729 157.326L65.6537 157.461L68.9409 158.598V160.092Z" fill="white"/>
<path d="M61.9738 160.092L56.8351 157.93V156.705L61.9738 154.543V156.031L58.6867 157.191L58.3058 157.326L58.6867 157.461L61.9738 158.598V160.092Z" fill="white"/>
<path d="M55.0068 160.092L49.8681 157.93V156.705L55.0068 154.543V156.031L51.7197 157.191L51.3388 157.326L51.7197 157.461L55.0068 158.598V160.092Z" fill="white"/>
<path d="M48.0398 160.092L42.9011 157.93V156.705L48.0398 154.543V156.031L44.7527 157.191L44.3718 157.326L44.7527 157.461L48.0398 158.598V160.092Z" fill="white"/>
<path d="M41.0728 160.092L35.9341 157.93V156.705L41.0728 154.543V156.031L37.7856 157.191L37.4048 157.326L37.7856 157.461L41.0728 158.598V160.092Z" fill="white"/>
<path d="M34.1057 160.092L28.967 157.93V156.705L34.1057 154.543V156.031L30.8186 157.191L30.4377 157.326L30.8186 157.461L34.1057 158.598V160.092Z" fill="white"/>
<path d="M27.1387 160.092L22 157.93V156.705L27.1387 154.543V156.031L23.8516 157.191L23.4707 157.326L23.8516 157.461L27.1387 158.598V160.092Z" fill="white"/>
</svg>
