<svg width="16" height="16" viewBox="0 0 16 16" fill="none" xmlns="http://www.w3.org/2000/svg">
<path d="M6.75 14.875C6.75 15.0408 6.68415 15.1997 6.56694 15.3169C6.44973 15.4342 6.29076 15.5 6.125 15.5H1.75C1.41848 15.5 1.10054 15.3683 0.866116 15.1339C0.631696 14.8995 0.5 14.5815 0.5 14.25V1.75C0.5 1.41848 0.631696 1.10054 0.866116 0.866116C1.10054 0.631696 1.41848 0.5 1.75 0.5H6.125C6.29076 0.5 6.44973 0.565848 6.56694 0.683058C6.68415 0.800269 6.75 0.95924 6.75 1.125C6.75 1.29076 6.68415 1.44973 6.56694 1.56694C6.44973 1.68415 6.29076 1.75 6.125 1.75H1.75V14.25H6.125C6.29076 14.25 6.44973 14.3158 6.56694 14.4331C6.68415 14.5503 6.75 14.7092 6.75 14.875ZM15.3172 7.55781L12.1922 4.43281C12.1048 4.34531 11.9934 4.2857 11.8721 4.26154C11.7508 4.23739 11.625 4.24977 11.5108 4.29711C11.3965 4.34446 11.2988 4.42464 11.2302 4.52751C11.1615 4.63038 11.1249 4.75132 11.125 4.875V7.375H6.125C5.95924 7.375 5.80027 7.44085 5.68306 7.55806C5.56585 7.67527 5.5 7.83424 5.5 8C5.5 8.16576 5.56585 8.32473 5.68306 8.44194C5.80027 8.55915 5.95924 8.625 6.125 8.625H11.125V11.125C11.1249 11.2487 11.1615 11.3696 11.2302 11.4725C11.2988 11.5754 11.3965 11.6555 11.5108 11.7029C11.625 11.7502 11.7508 11.7626 11.8721 11.7385C11.9934 11.7143 12.1048 11.6547 12.1922 11.5672L15.3172 8.44219C15.3753 8.38414 15.4214 8.31521 15.4529 8.23934C15.4843 8.16346 15.5005 8.08213 15.5005 8C15.5005 7.91787 15.4843 7.83654 15.4529 7.76066C15.4214 7.68479 15.3753 7.61586 15.3172 7.55781Z" fill="black"/>
</svg>
